<?xml version="1.0" standalone="no"?>
<!DOCTYPE svg PUBLIC "-//W3C//DTD SVG 20010904//EN"
 "http://www.w3.org/TR/2001/REC-SVG-20010904/DTD/svg10.dtd">
<svg version="1.0" xmlns="http://www.w3.org/2000/svg"
 width="512.000000pt" height="512.000000pt" viewBox="0 0 512.000000 512.000000"
 preserveAspectRatio="xMidYMid meet">
<metadata>
Created by potrace 1.14, written by Peter Selinger 2001-2017
</metadata>
<g transform="translate(0.000000,512.000000) scale(0.100000,-0.100000)"
fill="#000000" stroke="none">
<path d="M288 5106 c-10 -7 -21 -24 -26 -37 -10 -29 -9 -1485 1 -1515 4 -12
21 -27 37 -34 l30 -12 0 -98 c0 -96 -1 -98 -25 -104 -52 -13 -51 1 -51 -858
l1 -797 24 -25 c22 -23 30 -25 120 -25 53 0 148 0 211 -1 l115 0 0 -65 0 -64
-55 -20 c-164 -60 -304 -231 -343 -419 -13 -62 -15 -162 -4 -212 17 -78 35
-124 84 -214 30 -56 141 -154 216 -191 104 -51 164 -65 276 -61 110 4 134 8
205 39 102 44 140 75 329 270 176 182 192 196 200 175 9 -23 76 -249 82 -278
7 -28 43 -144 58 -188 26 -73 80 -152 149 -216 116 -109 245 -156 410 -151
150 4 275 59 383 169 218 221 218 579 0 802 -76 78 -159 123 -310 169 -66 20
-129 40 -140 44 -11 4 239 7 555 7 l575 -1 1 -527 c1 -290 4 -542 8 -560 4
-18 15 -43 26 -56 42 -51 41 -51 706 -51 689 0 663 -3 706 68 l23 36 -1 820
c0 756 -1 823 -17 852 -20 38 -55 63 -100 72 -30 6 -34 12 -82 140 -61 163
-92 203 -173 228 -31 9 -60 22 -64 27 -5 8 -22 101 -34 196 -3 19 -9 58 -14
85 -5 28 -12 64 -14 80 -3 17 -8 48 -12 70 -4 22 -8 49 -9 60 -1 11 -5 36 -8
55 -10 52 -16 90 -23 140 -8 70 -33 149 -52 168 -16 16 -17 74 -17 794 l0 778
-23 22 c-22 22 -29 23 -230 24 -114 1 -209 2 -212 3 -3 1 -5 76 -5 169 1 92
-3 177 -8 188 -5 12 -20 27 -34 33 -38 17 -3422 15 -3445 -3z m633 -4056 c32
0 89 -60 96 -102 8 -51 -2 -83 -37 -120 -43 -44 -114 -51 -168 -15 -49 32 -69
89 -51 145 6 20 17 43 23 51 15 20 88 52 104 46 8 -3 22 -5 33 -5z m1433 -344
c106 -44 100 -208 -9 -244 -68 -22 -130 1 -160 59 -34 64 -15 136 44 176 39
26 77 29 125 9z"/>
</g>
</svg>
